<?xml version="1.0" encoding="utf-8"?>
<!-- Generator: Adobe Illustrator 22.0.1, SVG Export Plug-In . SVG Version: 6.00 Build 0)  -->
<svg version="1.1" id="レイヤー_1" xmlns="http://www.w3.org/2000/svg" xmlns:xlink="http://www.w3.org/1999/xlink" x="0px"
	 y="0px" viewBox="0 0 529.8 117.7" style="enable-background:new 0 0 529.8 117.7;" xml:space="preserve">
<style type="text/css">
	.st0{fill:none;}
</style>
<path class="st0" d="M87.7,57.1c0.4,0.1,0.8,0.3,1,0.7c0.3,0.4,0.3,0.8,0.2,1.2c-1,4.6-2.4,8.4-4.3,11.5c-0.9,1.6-2,3-3.4,4.4
	c-1.4,1.4-3.1,2-5.1,2c-1.5,0-2.8-0.3-4-0.9c-1.2-0.6-2.3-1.4-3.2-2.4c-0.9-1-1.7-2.2-2.3-3.5c-0.6-1.3-1.2-2.7-1.5-4
	c-1.2-4.2-1.8-8.6-1.9-13.2c-0.1-4.6-0.1-9.6,0.1-15h-24c-0.4,9.9-1.5,18-3.3,24.1c-1.3,4.7-3,8.2-5,10.6c-2.4,2.9-5.3,4.3-8.7,4.3
	c-3.4,0-6.2-1.1-8.4-3.3c-2.5-2.4-3.8-5.8-3.8-10.2c0-2.6,0.8-5,2.3-7.3c0.8-1.2,1.7-2.3,2.9-3.3c1.1-1,2.4-1.9,3.9-2.8
	c0.4-0.2,0.9-0.3,1.3-0.1c0.4,0.1,0.7,0.4,1,0.8c0.3,0.4,0.3,0.9,0.2,1.3c-0.1,0.4-0.4,0.7-0.8,1c-2.5,1.4-4.4,3-5.6,4.9
	c-1.2,1.8-1.8,3.6-1.8,5.5c0,3.4,0.9,6,2.8,7.8c1.6,1.6,3.6,2.4,6.1,2.4c2.3,0,4.3-1.1,6.1-3.2c1.8-2.1,3.3-5.3,4.4-9.4
	c1.1-3.7,1.8-7.4,2.2-11.3C35.5,46,35.8,42,36,38h-9.3c-0.4,0-0.8-0.2-1.2-0.5c-0.3-0.3-0.5-0.7-0.5-1.1c0-0.4,0.2-0.8,0.5-1.2
	c0.3-0.3,0.7-0.5,1.2-0.5h9.3l0.2-4.2c0-0.3,0-1,0-2.1c0-1.1-0.1-2.5-0.1-4.1c0-1.6-0.1-3.3-0.1-5.1c0-1.8-0.1-3.6-0.1-5.3
	c0-1.1,0-2.1,0-3c0-1,0-1.9,0-2.8c-0.8,0.6-1.7,1-2.6,1.1c-1,0.1-2,0.1-3-0.1c-1-0.2-2.1-0.4-3.1-0.8c-1.1-0.3-2.1-0.7-3-1
	c-1.5-0.6-3-1-4.5-1.5c-1.5-0.4-3-0.6-4.5-0.6c-0.4,0-1.3,0.1-2.7,0.4c-1.4,0.3-2.8,0.8-4.2,1.5c-3.2,1.7-4.8,4.1-4.8,7.3
	c0,0.4,0,0.9,0.1,1.4c0.1,0.6,0.2,1.1,0.4,1.7c0.2,0.6,0.4,1,0.8,1.5c0.3,0.4,0.7,0.7,1.2,0.9c0.4,0.1,0.8,0.4,1,0.8
	c0.2,0.4,0.2,0.8,0.1,1.3c-0.1,0.4-0.4,0.7-0.8,1c-0.4,0.3-0.8,0.3-1.3,0.1c-1.7-0.7-2.9-1.8-3.6-3.5c-0.8-1.7-1.1-3.4-1.1-5
	c0-4.6,2.2-8,6.5-10.3c1.7-0.9,3.3-1.6,4.9-1.9C13,2,14.2,1.9,15,1.9c1.8,0,3.5,0.2,5.3,0.7c1.7,0.5,3.4,1,4.9,1.6
	c1.8,0.6,3.4,1.1,4.8,1.5C31.4,6,32.7,6,33.7,5.5c0.8-0.4,1.4-1,1.8-1.9c0.4-0.9,0.7-1.7,1-2.5c0.1-0.4,0.4-0.8,0.8-1
	C37.6,0,38-0.1,38.4,0.1c0.4,0.1,0.8,0.4,1,0.8c0.2,0.4,0.3,0.8,0.2,1.2c-0.5,1.8-0.7,3.6-0.6,5.6c0.1,1.9,0.2,4,0.3,6.2
	c0.1,1.8,0.1,3.7,0.1,5.5c0,1.9,0.1,3.6,0.1,5.1c0,1.6,0,2.9,0,4c0,1.1,0,1.8,0,2.1c0,0.7,0,1.4,0,2.1c0,0.7,0,1.4-0.1,2h23.9
	c0-5.2,0.2-10.3,0.7-15.5c0.5-5.1,0.7-10.5,0.7-16c0-0.4,0.2-0.8,0.5-1.2s0.7-0.5,1.2-0.5c0.4,0,0.8,0.2,1.2,0.5
	c0.3,0.3,0.5,0.7,0.5,1.2c0,5.2-0.2,10.4-0.6,15.6c-0.4,5.2-0.7,10.5-0.8,15.8h6.2c0.4,0,0.8,0.2,1.2,0.5c0.3,0.3,0.5,0.7,0.5,1.2
	c0,0.4-0.2,0.8-0.5,1.1c-0.3,0.3-0.7,0.5-1.2,0.5h-6.3c-0.1,2.2-0.1,4.5-0.2,6.8c-0.1,2.3-0.1,4.6,0,6.9c0.1,2.3,0.3,4.6,0.5,6.9
	c0.3,2.3,0.8,4.5,1.4,6.8c0.3,0.9,0.6,1.9,1,2.9c0.4,1,0.9,1.9,1.6,2.7c0.6,0.8,1.4,1.5,2.3,2c0.9,0.5,1.9,0.8,3,0.8
	c1.2,0,2.3-0.5,3.3-1.5c1-1,1.8-2.1,2.4-3.2c0.8-1.4,1.5-3,2.2-4.7c0.7-1.7,1.3-3.6,1.7-5.8c0.1-0.4,0.3-0.8,0.7-1.1
	C86.8,57,87.2,56.9,87.7,57.1z M127.2,59c-0.9,6.2-2.3,10.8-4.1,13.6c-1.8,2.9-4,4.3-6.7,4.3c-3.6,0-5.9-2.4-7-7.3
	c-1.2,2.5-2.7,4.3-4.6,5.5c-1.9,1.2-4,1.8-6.3,1.8c-1.9,0-3.6-0.3-5.3-1c-1.6-0.7-3-1.7-4.2-2.9c-1.2-1.3-2.1-2.8-2.8-4.6
	c-0.7-1.8-1-3.8-1-6c0-2.1,0.3-4.2,1-6.2c0.7-2,1.6-3.8,2.8-5.3c1.2-1.5,2.5-2.8,4.1-3.7c1.6-0.9,3.3-1.4,5-1.4
	c2.3,0,4.4,0.6,6.3,1.7c1.9,1.1,3.3,2.8,4.5,4.9c0-0.2,0-0.7,0-1.4c0-0.7,0-1.5,0.1-2.3c0.1-0.8,0.3-1.5,0.5-2.1
	c0.3-0.6,0.7-0.9,1.3-0.9c0.5,0,0.9,0.2,1.3,0.5c0.3,0.3,0.5,0.7,0.5,1.2l-0.1,1.2c-0.2,2.3-0.3,4.6-0.3,6.7
	c-0.1,2.1-0.1,4.1-0.1,5.8c0,3.1,0.2,5.5,0.5,7.2c0.3,1.7,0.7,2.9,1.2,3.7c0.5,0.8,1,1.2,1.5,1.4c0.5,0.1,0.9,0.2,1.3,0.2
	c1.2,0,2.3-0.6,3.2-1.9s1.7-2.7,2.3-4.4c0.6-1.7,1-3.3,1.4-5c0.3-1.7,0.6-3,0.8-3.9c0.2-0.9,0.7-1.3,1.7-1.3c0.4,0,0.8,0.2,1.2,0.5
	C127.2,58,127.3,58.4,127.2,59z M98.5,73.6c1.6,0,2.9-0.3,4.1-1c1.2-0.7,2.1-1.6,2.9-2.7c0.8-1.1,1.4-2.4,1.8-3.8
	c0.4-1.4,0.6-2.9,0.6-4.3c0-3.9-0.9-6.9-2.7-9.2c-1.8-2.2-4.1-3.3-6.9-3.3c-1.3,0-2.5,0.4-3.7,1.1c-1.2,0.7-2.2,1.7-3.1,3
	c-0.9,1.3-1.6,2.7-2.1,4.3c-0.5,1.6-0.8,3.3-0.8,5c0,3.5,0.9,6.2,2.8,8.2C93.2,72.6,95.6,73.6,98.5,73.6z M161.8,57.1
	c0.4,0.1,0.8,0.3,1,0.7c0.2,0.4,0.3,0.8,0.2,1.2c-0.3,1.4-0.6,3.1-1,5.1c-0.4,2-1,4-1.8,5.9c-0.8,1.9-1.8,3.5-3.1,4.8
	c-1.3,1.3-2.9,2-4.9,2c-1.4,0-2.7-0.4-3.8-1.3c-1.1-0.8-1.8-2.1-2.3-3.7c-0.3-1.1-0.6-2.4-0.7-3.9c-0.1-1.5-0.3-3.1-0.4-4.9
	c-0.1-1.2-0.2-2.5-0.3-3.9c-0.1-1.4-0.3-2.8-0.5-4.3c-0.2-0.9-0.5-1.8-1-2.6c-0.5-0.8-1.1-1.5-1.8-2.1c-0.9-0.8-1.9-1.4-3.2-1.8
	c-1.2-0.4-2.5-0.6-3.7-0.5c-1.3,0.1-2.4,0.4-3.5,1c-1.1,0.6-1.9,1.5-2.4,2.8c-0.4,1.1-0.8,2.3-1,3.6c-0.2,1.3-0.4,2.6-0.5,3.9
	c0,3.2,0,6.8,0,10.7c0,3.9,0,7.8,0,11.8s0,7.9,0,11.8s0,7.3,0,10.4c0,3.1,0,5.7,0,7.8c0,2.1,0,3.4,0,3.9c0,0.4-0.2,0.8-0.5,1.1
	c-0.3,0.4-0.7,0.5-1.2,0.5c-0.4,0-0.8-0.2-1.2-0.5c-0.3-0.3-0.5-0.7-0.5-1.2c0-9.5,0-18.9,0-28.3c0-9.4,0-18.8,0-28.3
	c0-2.8,0-5.3,0-7.4c0-2.1,0-3.6,0.1-4.6c0-0.4,0.2-0.8,0.5-1.2c0.3-0.3,0.7-0.5,1.2-0.5c0.6,0.1,1.1,0.3,1.4,0.8
	c0.3,0.5,0.4,1,0.2,1.6c1.4-1.8,3.4-2.8,6-3.1c1.9-0.2,3.8,0,5.6,0.5c1.7,0.5,3.3,1.4,4.8,2.6c2,1.7,3.3,3.9,3.9,6.6
	c0.3,1.3,0.5,2.7,0.5,4.1c0.1,1.4,0.2,2.9,0.3,4.5c0.3,3.3,0.6,5.9,1,7.6c0.4,1.8,1.1,2.7,2.2,3c1.4,0.3,2.6-0.2,3.5-1.3
	c0.9-1.2,1.7-2.6,2.4-4.3c0.6-1.7,1.2-3.4,1.5-5.3c0.4-1.8,0.7-3.2,0.8-4.2c0.1-0.4,0.4-0.8,0.8-1.1C161,57,161.4,56.9,161.8,57.1z
	 M197.7,57.1c0.4,0.1,0.8,0.3,1,0.7c0.2,0.4,0.3,0.8,0.2,1.2c-0.3,1.4-0.6,3.1-1,5.1c-0.4,2-1,4-1.8,5.9c-0.8,1.9-1.8,3.5-3.1,4.8
	c-1.3,1.3-2.9,2-4.9,2c-1.4,0-2.7-0.4-3.8-1.3c-1.1-0.8-1.8-2.1-2.3-3.7c-0.3-1.1-0.6-2.4-0.7-3.9c-0.1-1.5-0.3-3.1-0.4-4.9
	c-0.1-1.2-0.2-2.5-0.3-3.9c-0.1-1.4-0.3-2.8-0.5-4.3c-0.2-0.9-0.5-1.8-1-2.6c-0.5-0.8-1.1-1.5-1.8-2.1c-0.9-0.8-1.9-1.4-3.2-1.8
	c-1.2-0.4-2.5-0.6-3.7-0.5c-1.3,0.1-2.4,0.4-3.5,1c-1.1,0.6-1.9,1.5-2.4,2.8c-0.4,1.1-0.8,2.3-1,3.6c-0.2,1.3-0.4,2.6-0.5,3.9
	c0,3.2,0,6.8,0,10.7c0,3.9,0,7.8,0,11.8s0,7.9,0,11.8s0,7.3,0,10.4c0,3.1,0,5.7,0,7.8c0,2.1,0,3.4,0,3.9c0,0.4-0.2,0.8-0.5,1.1
	c-0.3,0.4-0.7,0.5-1.2,0.5c-0.4,0-0.8-0.2-1.2-0.5c-0.3-0.3-0.5-0.7-0.5-1.2c0-9.5,0-18.9,0-28.3c0-9.4,0-18.8,0-28.3
	c0-2.8,0-5.3,0-7.4c0-2.1,0-3.6,0.1-4.6c0-0.4,0.2-0.8,0.5-1.2c0.3-0.3,0.7-0.5,1.2-0.5c0.6,0.1,1.1,0.3,1.4,0.8
	c0.3,0.5,0.4,1,0.2,1.6c1.4-1.8,3.4-2.8,6-3.1c1.9-0.2,3.8,0,5.6,0.5c1.7,0.5,3.3,1.4,4.8,2.6c2,1.7,3.3,3.9,3.9,6.6
	c0.3,1.3,0.5,2.7,0.5,4.1c0.1,1.4,0.2,2.9,0.3,4.5c0.3,3.3,0.6,5.9,1,7.6c0.4,1.8,1.1,2.7,2.2,3c1.4,0.3,2.6-0.2,3.5-1.3
	c0.9-1.2,1.7-2.6,2.4-4.3c0.6-1.7,1.2-3.4,1.5-5.3c0.4-1.8,0.7-3.2,0.8-4.2c0.1-0.4,0.4-0.8,0.8-1.1C196.8,57,197.2,56.9,197.7,57.1
	z M233,57.1c0.5,0.1,0.8,0.3,1,0.7c0.2,0.4,0.2,0.8,0.1,1.2c-0.3,2.2-0.9,4.1-1.8,5.9c-0.9,1.8-1.9,3.4-3.1,4.9
	c-1.2,1.5-2.6,2.9-4.1,4.2c-1.5,1.3-3.1,2.6-4.8,3.8c0.1,0.8,0.1,1.6,0.1,2.4c0,0.8,0,1.6,0,2.4c0,2.2,0.1,4.6,0.3,7.1
	c0.2,2.5,0.3,5,0.4,7.6c0,2.6-0.1,5.1-0.5,7.6c-0.3,2.5-1.1,4.8-2.2,6.9c-0.4,0.9-0.9,1.7-1.5,2.4c-0.6,0.7-1.2,1.3-1.8,1.8
	c-1.4,1.1-3.1,1.7-4.9,1.8h-0.3c-2.6,0-4.8-1.1-6.8-3.2c-1.7-1.8-3-4-3.8-6.6c-0.8-2.6-1.1-5.3-0.8-8c0.2-2.8,0.8-5.3,2-7.5
	c1.2-2.3,2.7-4.3,4.4-6.2c1.8-1.9,3.7-3.6,5.8-5.3c2.1-1.6,4.1-3.2,6.1-4.8c0-0.6,0-1.1,0-1.6s0-1-0.1-1.5c-0.9,1.3-2,2.3-3.5,2.9
	c-1.4,0.6-3,0.9-4.6,0.9c-1.6,0-3.1-0.2-4.6-0.7c-1.5-0.5-2.9-1.3-4.2-2.4c-2.7-2.3-4.1-5.3-4.2-9.1c-0.1-2.8-0.1-5.6-0.1-8.2
	c0-2.6,0-5.7,0-9.2c0-0.4,0.2-0.8,0.5-1.1c0.3-0.3,0.7-0.5,1.2-0.5c0.4,0,0.8,0.2,1.1,0.5c0.3,0.3,0.5,0.7,0.5,1.2
	c0,0.8,0,1.9,0,3.3c0,1.4,0,2.8,0,4.4c0,1.6,0.1,3.2,0.1,4.9c0,1.7,0.1,3.2,0.1,4.6c0.2,2.9,1.2,5.2,3,6.8c1,0.8,2.2,1.4,3.6,1.8
	c1.4,0.4,2.8,0.5,4.3,0.4c1.4-0.2,2.5-0.7,3.4-1.6c0.9-0.9,1.6-2,2.1-3.3c0.5-1.3,0.8-2.7,1-4.3c0.2-1.6,0.3-3,0.3-4.4
	c0-1.8,0-3.8,0-5.9c0-2.1,0-4.3,0-6.7c0-0.4,0.2-0.8,0.5-1.1c0.3-0.3,0.7-0.5,1.2-0.5c0.4,0,0.8,0.2,1.2,0.5
	c0.3,0.3,0.5,0.7,0.4,1.2c-0.1,2.4-0.1,4.6-0.1,6.7c0.1,2.1,0.1,4,0.1,5.8c0,1.6,0,3.1,0,4.5c0,1.4,0,2.7,0,3.9c0,0.6,0,1.4,0,2.3
	c0,0.9,0,1.9,0.1,3c1.2-0.9,2.3-1.9,3.5-3c1.2-1.1,2.3-2.2,3.3-3.5s1.9-2.6,2.6-4c0.7-1.4,1.2-3,1.4-4.8c0.1-0.4,0.3-0.8,0.7-1.1
	C232.1,57,232.6,56.9,233,57.1z M215.7,110.1c0.9-1.8,1.5-3.9,1.8-6.1c0.3-2.3,0.5-4.6,0.5-7s-0.1-4.8-0.3-7.3
	c-0.2-2.4-0.3-4.8-0.5-7.1l-0.2-2.4c-1.9,1.4-3.7,2.9-5.5,4.3s-3.3,2.9-4.7,4.5c-1.4,1.6-2.5,3.3-3.5,5.1c-0.9,1.8-1.5,3.9-1.6,6.1
	c-0.2,2.3,0.1,4.6,0.8,6.8c0.7,2.2,1.7,3.9,3,5.3c0.5,0.5,1.1,1,1.9,1.5c0.8,0.5,1.6,0.7,2.6,0.6c1.4-0.1,2.5-0.5,3.4-1.5
	C214.5,112,215.2,111.1,215.7,110.1z M343.5,5.4c0.4,0.1,0.8,0.3,1.1,0.7c0.3,0.4,0.4,0.8,0.3,1.3c-0.3,1.9-0.8,3.7-1.5,5.4
	c-0.7,1.7-1.6,3.2-2.6,4.5c-2,2.6-4.5,4.2-7.5,4.7c0.4,3.1,0.7,6.4,0.8,9.9c0.1,3.5,0.1,7-0.1,10.6c-0.2,3.6-0.6,7.1-1.2,10.7
	c-0.6,3.5-1.4,6.9-2.5,10c-1.6,4.3-3.4,7.6-5.6,9.9c-2.7,2.7-5.8,4-9.5,4c-2.3,0-4.4-0.4-6.3-1.3c-1.9-0.9-3.5-2.4-4.8-4.7
	c-0.6-1.1-1-2.2-1.4-3.5c-0.4-1.3-0.7-2.8-1-4.5c-0.8,2.4-1.6,4.4-2.6,6.1c-0.9,1.7-2,3.2-3.3,4.4c-2.3,2.4-5.1,3.6-8.3,3.6
	c-4.2,0-7.8-1.9-10.6-5.7c-3-4.3-4.5-10.8-4.5-19.4c0-2.8,0.1-5.7,0.4-8.5c0.3-2.8,0.5-5.7,0.8-8.5c0.3-2.8,0.5-5.7,0.7-8.5
	c0.2-2.9,0.3-5.7,0.2-8.6c0-0.9-0.1-2.2-0.2-3.7c-0.1-1.5-0.4-3-0.8-4.4c-0.4-1.4-1-2.7-1.9-3.8c-0.8-1.1-1.9-1.7-3.3-1.8
	c-0.9-0.1-1.7-0.1-2.5,0c-0.8,0.1-1.5,0.3-2.3,0.8c-0.7,0.5-1.4,1.2-2.1,2.1c-0.7,0.9-1.3,2.2-1.9,3.9c-0.5,1.3-0.7,2.6-0.5,3.9
	c0.1,1.3,0.5,2.5,1.1,3.6s1.3,2.3,2.2,3.3c0.9,1.1,1.9,2,2.9,2.8c0.3,0.3,0.5,0.7,0.6,1.1c0.1,0.5-0.1,0.9-0.3,1.2
	c-0.8,0.8-1.6,0.9-2.3,0.3c-1.3-1.1-2.4-2.2-3.5-3.5c-1.1-1.3-1.9-2.6-2.6-4.1c-0.7-1.5-1.1-3-1.3-4.6c-0.2-1.6,0.1-3.3,0.7-5.1
	c0.9-2.9,2.4-5.2,4.3-7c1.9-1.7,4.5-2.5,7.9-2.2c1.9,0.2,3.4,0.9,4.6,2c1.2,1.1,2.1,2.5,2.8,4.2c0.7,1.6,1.1,3.4,1.4,5.3
	c0.3,1.9,0.4,3.7,0.5,5.5c0.1,2.8,0,5.6-0.2,8.4c-0.2,2.8-0.4,5.6-0.7,8.5c-0.3,2.8-0.5,5.7-0.8,8.6c-0.3,2.9-0.4,5.8-0.4,8.8
	c0,1.4,0,2.8,0.1,4.4c0.1,1.5,0.2,3.1,0.5,4.6c0.3,1.5,0.7,3,1.2,4.5c0.5,1.4,1.2,2.8,2.2,4.1c0.9,1.3,2,2.3,3.3,3.1
	c1.3,0.8,2.8,1.2,4.5,1.2c2.2,0,4.1-0.9,5.9-2.7c1.9-1.9,3.5-4.5,4.6-7.8c1.1-3.3,1.9-6.7,2.5-10.3c0.5-3.6,0.8-7.3,1-10.9
	c0.1-3.6,0.2-6.8,0.2-9.6c0-0.4,0.2-0.8,0.5-1.2c0.3-0.3,0.7-0.5,1.2-0.5c0.4,0,0.8,0.2,1.2,0.5s0.5,0.7,0.5,1.2
	c0,2.2-0.1,4.9-0.3,8.2c-0.2,3.3-0.4,6.7-0.4,10.3c-0.1,3.5,0.1,6.9,0.5,10.2c0.4,3.3,1.1,6,2.3,8.2c1.5,2.9,4.2,4.3,8.2,4.3
	c2.7,0,5.1-1,7.1-3.1c2-2.1,3.6-4.9,4.8-8.7c2.1-6.2,3.2-12.8,3.5-19.6c0.3-6.9,0.1-13.7-0.7-20.5c-1.9-0.1-3.8-0.5-5.7-1
	c-1.9-0.6-3.5-1.4-4.9-2.4c-1.4-1-2.6-2.3-3.4-3.8c-0.9-1.5-1.3-3.2-1.3-5c0-1.2,0.3-2.4,0.8-3.6c0.5-1.2,1.2-2.2,2.1-3.1
	c0.8-0.8,1.7-1.4,2.7-1.7c0.9-0.3,1.9-0.4,2.8-0.3c0.9,0.1,1.9,0.5,2.8,1c0.9,0.6,1.7,1.3,2.3,2.3c0.7,0.9,1.3,2.1,1.8,3.4
	c0.6,1.3,1.1,2.8,1.5,4.5c0.6,2.1,1.1,4.2,1.4,6.4c2.1-0.3,3.9-1.5,5.4-3.4c0.8-1.1,1.5-2.3,2.1-3.7c0.6-1.4,1-2.9,1.3-4.5
	c0.1-0.4,0.3-0.8,0.7-1.1C342.6,5.4,343,5.3,343.5,5.4z M321.9,16.2c2.1,1.2,4.6,2,7.5,2.3c-0.3-1.9-0.8-3.8-1.3-5.6
	c-0.2-0.6-0.5-1.6-1-2.9c-0.5-1.3-1.1-2.5-1.8-3.6c-0.7-1.1-1.6-1.8-2.5-2.3c-0.9-0.4-2-0.1-3.1,1c-0.8,0.8-1.4,1.7-1.6,2.7
	s-0.3,2,0,3c0.2,1,0.7,2,1.3,3C320.1,14.8,320.9,15.6,321.9,16.2z M364.5,57.1c0.9,0.3,1.3,0.9,1.2,1.9c-0.8,4.1-2,7.3-3.5,9.9
	c-1.6,2.5-3.7,4.5-6.3,6c-2.6,1.4-5.5,2.1-8.8,2.1c-2,0-3.9-0.3-5.8-1c-1.8-0.7-3.4-1.9-4.8-3.7c-0.9-1.1-1.6-2.5-2.3-4
	c-0.6-1.6-0.9-3.2-0.9-4.8c-0.1-2.6,0.2-5.1,0.9-7.8c0.7-2.6,2.1-4.8,4.3-6.7c2.4-2,5.5-3.1,9.1-3.2c1.5-0.1,3,0.3,4.5,1
	s2.7,1.7,3.7,3c1.5,2,1.9,4.2,1.1,6.5c-1,3.1-5,5.5-12,7.3c-1.6,0.4-3,0.7-4.4,1c-1.4,0.3-2.5,0.4-3.4,0.5c0,0.8,0.2,1.6,0.7,2.6
	c0.4,0.9,0.9,1.8,1.5,2.5c0.9,1.2,2,2.1,3.3,2.6c1.3,0.5,2.8,0.8,4.4,0.8c2.8,0,5.3-0.6,7.3-1.7c2.1-1.2,3.8-2.8,5.2-5
	c1.4-2.1,2.4-5,3-8.5c0.1-0.4,0.4-0.8,0.8-1.1C363.6,57,364,56.9,364.5,57.1z M336.9,59c-0.1,0.4-0.2,0.9-0.2,1.4s0,1,0,1.5
	c0.9-0.1,2-0.3,3.3-0.5c1.3-0.3,2.6-0.6,4.1-1c2-0.5,3.6-1,4.8-1.5c1.2-0.5,2.2-1,2.9-1.5c0.7-0.4,1.2-0.8,1.5-1.2
	c0.3-0.4,0.4-0.7,0.5-0.9c0.3-0.8,0.3-1.6,0-2.4c-0.3-0.8-0.7-1.4-1.3-2c-0.6-0.6-1.3-1-2.2-1.3c-0.8-0.3-1.6-0.5-2.4-0.5
	c-1.1,0-2.3,0.2-3.6,0.6c-1.3,0.4-2.4,1-3.5,1.9C338.8,53.2,337.5,55.6,336.9,59z M402.4,57.1c0.4,0.1,0.8,0.3,1,0.7
	c0.3,0.4,0.3,0.8,0.2,1.2c-0.3,1.9-0.7,3.7-1,5.2c-0.4,1.5-0.8,2.9-1.2,4.2c-1.3,3.5-2.9,5.9-4.8,7.3c-1.5,1.1-3.2,1.4-5.1,1.1
	c-2.4-0.4-4.1-3-5.2-7.7c-0.6,1.2-1.3,2.4-2.1,3.5c-1.9,2.3-4.5,3.7-7.6,4.2c-1.7,0.2-3.5,0.1-5.3-0.5c-1.8-0.5-3.4-1.4-4.8-2.5
	c-2.4-2.2-3.9-5.1-4.4-8.9c-0.4-2.6-0.2-5.2,0.5-7.8c0.7-2.6,1.8-4.8,3.5-6.8c0.9-1.1,2.2-2.1,3.7-3.1c1.5-0.9,3.2-1.4,5.2-1.4
	c3.5,0,6.4,1.2,8.7,3.6c0.2,0.2,0.3,0.4,0.5,0.6c0.2,0.2,0.3,0.4,0.4,0.6c0-3.8,0-7.3,0-10.3c0-3,0-6,0-9c0-2.9,0-6.1,0-9.4
	c0-3.3,0-7.2,0-11.5c0-0.4,0.2-0.8,0.5-1.2c0.3-0.3,0.7-0.5,1.2-0.5c0.4,0,0.8,0.2,1.1,0.5c0.3,0.3,0.5,0.7,0.5,1.2v42.3
	c0,1.2,0.1,2.6,0.2,4.1c0.1,1.5,0.3,3.1,0.4,4.7c0.2,1.8,0.4,3.4,0.7,4.8c0.3,1.4,0.6,2.7,0.9,3.8c0.2,0.5,0.4,1,0.6,1.5
	c0.3,0.5,0.6,1,1,1.3c0.4,0.4,0.8,0.6,1.3,0.6c0.5,0.1,1.1-0.2,1.8-0.7c0.9-0.7,1.7-1.7,2.3-3c0.7-1.3,1.2-2.7,1.7-4.1
	c0.4-1.4,0.8-2.8,1.1-4.2c0.3-1.4,0.5-2.4,0.6-3.2c0.1-0.4,0.3-0.8,0.7-1.1C401.6,57,402,56.9,402.4,57.1z M381.7,70.5
	c1.2-1.4,2-3.2,2.4-5.1c0.4-2,0.5-4,0.3-6.1c-0.4-3.3-1.5-5.8-3.2-7.6c-1.7-1.7-4-2.6-6.9-2.6c-1,0-2,0.3-2.9,0.9
	c-0.9,0.6-1.8,1.4-2.7,2.4c-1.3,1.6-2.2,3.4-2.8,5.5c-0.6,2.1-0.7,4.2-0.5,6.5c0.4,3,1.6,5.3,3.4,6.9c0.9,0.8,1.9,1.3,3.1,1.7
	c1.2,0.4,2.7,0.5,4.5,0.5c1,0,1.9-0.3,2.8-0.8C380.2,72.1,381,71.4,381.7,70.5z M440.4,57.1c0.4,0.1,0.8,0.3,1,0.7
	c0.3,0.4,0.3,0.8,0.2,1.2c-0.3,1.9-0.7,3.7-1,5.2c-0.4,1.5-0.8,2.9-1.2,4.2c-1.3,3.5-2.9,5.9-4.8,7.3c-1.5,1.1-3.2,1.4-5.1,1.1
	c-2.4-0.4-4.1-3-5.2-7.7c-0.6,1.2-1.3,2.4-2.1,3.5c-1.9,2.3-4.5,3.7-7.6,4.2c-1.7,0.2-3.5,0.1-5.3-0.5c-1.8-0.5-3.4-1.4-4.8-2.5
	c-2.4-2.2-3.9-5.1-4.4-8.9c-0.4-2.6-0.2-5.2,0.5-7.8c0.7-2.6,1.8-4.8,3.5-6.8c0.9-1.1,2.2-2.1,3.7-3.1c1.5-0.9,3.2-1.4,5.2-1.4
	c3.5,0,6.4,1.2,8.7,3.6c0.2,0.2,0.3,0.4,0.5,0.6c0.2,0.2,0.3,0.4,0.4,0.6c0-3.8,0-7.3,0-10.3c0-3,0-6,0-9c0-2.9,0-6.1,0-9.4
	c0-3.3,0-7.2,0-11.5c0-0.4,0.2-0.8,0.5-1.2c0.3-0.3,0.7-0.5,1.2-0.5c0.4,0,0.8,0.2,1.1,0.5c0.3,0.3,0.5,0.7,0.5,1.2v42.3
	c0,1.2,0.1,2.6,0.2,4.1c0.1,1.5,0.3,3.1,0.4,4.7c0.2,1.8,0.4,3.4,0.7,4.8c0.3,1.4,0.6,2.7,0.9,3.8c0.2,0.5,0.4,1,0.6,1.5
	c0.3,0.5,0.6,1,1,1.3c0.4,0.4,0.8,0.6,1.3,0.6c0.5,0.1,1.1-0.2,1.8-0.7c0.9-0.7,1.7-1.7,2.3-3c0.7-1.3,1.2-2.7,1.7-4.1
	c0.4-1.4,0.8-2.8,1.1-4.2c0.3-1.4,0.5-2.4,0.6-3.2c0.1-0.4,0.3-0.8,0.7-1.1C439.6,57,440,56.9,440.4,57.1z M419.7,70.5
	c1.2-1.4,2-3.2,2.4-5.1c0.4-2,0.5-4,0.3-6.1c-0.4-3.3-1.5-5.8-3.2-7.6c-1.7-1.7-4-2.6-6.9-2.6c-1,0-2,0.3-2.9,0.9
	c-0.9,0.6-1.8,1.4-2.7,2.4c-1.3,1.6-2.2,3.4-2.8,5.5c-0.6,2.1-0.7,4.2-0.5,6.5c0.4,3,1.6,5.3,3.4,6.9c0.9,0.8,1.9,1.3,3.1,1.7
	c1.2,0.4,2.7,0.5,4.5,0.5c1,0,1.9-0.3,2.8-0.8C418.2,72.1,419,71.4,419.7,70.5z M455.7,57.1c0.4,0.1,0.8,0.3,1,0.7
	c0.3,0.4,0.3,0.8,0.2,1.2c-0.4,1.9-0.7,3.7-1,5.3c-0.3,1.6-0.7,3-1.1,4.3c-1.3,3.5-2.9,5.9-4.8,7.3c-1.1,0.8-2.4,1.2-3.8,1.2
	c-1.1,0-2.2-0.3-3.2-0.8c-1-0.6-1.8-1.4-2.5-2.6c-0.4-0.8-0.8-1.7-1.1-2.7c-0.3-1-0.5-2.2-0.6-3.5c-0.3-2.4-0.4-5.3-0.3-8.5
	s0.2-7,0.5-11.4c0.1-1.1,0.7-1.6,1.8-1.6c1.1,0.1,1.6,0.7,1.6,1.8c0,4.3-0.1,8-0.3,11.2c-0.2,3.2-0.2,5.9,0.1,8.2
	c0.2,1.4,0.4,2.5,0.7,3.4c0.3,0.9,0.6,1.5,0.9,2c0.3,0.5,0.6,0.8,1,1c0.3,0.2,0.6,0.3,0.9,0.4c1.4,0.2,2.6-0.3,3.5-1.4
	c0.9-1.2,1.7-2.6,2.4-4.3c0.6-1.7,1.1-3.4,1.5-5.3c0.4-1.8,0.7-3.2,0.9-4.2c0.1-0.4,0.3-0.8,0.7-1.1C454.8,57,455.2,56.9,455.7,57.1
	z M442.2,35.5c-0.8,0-1.5-0.2-2.2-0.7c-0.7-0.5-1.1-1-1.3-1.7c-0.2-0.7,0-1.2,0.4-1.7c0.4-0.4,1.1-0.7,1.8-0.7
	c0.8,0,1.5,0.2,2.1,0.7c0.6,0.4,1,1,1.2,1.7c0.2,0.7,0,1.2-0.4,1.7C443.5,35.2,442.9,35.5,442.2,35.5z M491.6,57.1
	c0.4,0.1,0.8,0.3,1,0.7c0.3,0.4,0.3,0.8,0.2,1.2c-0.3,1.9-0.7,3.7-1,5.2c-0.4,1.5-0.8,2.9-1.2,4.2c-1.3,3.5-2.9,5.9-4.8,7.3
	c-1.1,0.8-2.4,1.2-3.8,1.2c-3.1,0-5.1-1.6-6.1-4.9c-0.3-1.1-0.5-2.4-0.7-3.9c-0.2-1.5-0.3-3.1-0.4-4.9c-0.1-1.2-0.2-2.5-0.3-3.9
	c-0.1-1.4-0.3-2.8-0.5-4.3c-0.3-1.9-1.3-3.5-2.8-4.8c-0.9-0.8-1.9-1.4-3.2-1.8c-1.2-0.4-2.4-0.6-3.7-0.5c-1.2,0.1-2.4,0.4-3.4,1
	c-1.1,0.6-1.9,1.5-2.4,2.8c-0.5,1.1-0.9,2.4-1.1,3.8c-0.3,1.4-0.4,2.8-0.5,4.1c-0.1,2.1-0.2,4.1-0.2,6s0,3.6,0,5
	c0,1.4,0.1,3.1,0.1,4.8c0,0.6-0.2,0.9-0.5,1.2c-0.4,0.2-0.8,0.3-1.2,0.3c-0.4,0-0.8-0.2-1.1-0.5c-0.3-0.3-0.5-0.7-0.5-1.2
	c0-0.1,0-0.5,0-1.3s0-2,0-3.4s0-3.1,0-5s0-4,0-6.1c0-1.9,0-3.9,0-5.8c0-1.9-0.1-3.7-0.1-5.4c0-1.1,0.5-1.6,1.6-1.8
	c1.1,0,1.6,0.5,1.8,1.6c1.5-2.1,3.6-3.2,6.3-3.4c1.8-0.2,3.6,0,5.4,0.5c1.8,0.5,3.5,1.3,5,2.6c1.1,0.9,1.9,2,2.5,3.1
	c0.6,1.1,1,2.3,1.3,3.6c0.3,1.3,0.5,2.6,0.6,4.1c0.1,1.4,0.2,2.9,0.3,4.4c0.3,3.3,0.6,5.9,1,7.6c0.4,1.8,1.1,2.7,2.2,3
	c1,0.2,1.9,0,2.6-0.6c0.9-0.6,1.7-1.6,2.3-2.9c0.7-1.3,1.2-2.7,1.7-4.2c0.5-1.5,0.8-2.9,1.1-4.3c0.3-1.4,0.5-2.4,0.6-3.2
	c0.1-0.4,0.3-0.8,0.7-1.1C490.7,57,491.1,56.9,491.6,57.1z M528.6,57.1c0.3,0.1,0.6,0.3,0.9,0.7c0.3,0.4,0.4,0.8,0.3,1.3
	c-0.3,2.2-0.9,4.1-1.8,5.9c-0.9,1.8-1.9,3.4-3.2,4.9s-2.6,2.9-4.1,4.2c-1.5,1.3-3.1,2.6-4.8,3.8c0,1.6,0,3.1,0.1,4.7
	c0.1,1.6,0.1,3.2,0.2,4.9c0.1,1.7,0.2,3.6,0.3,5.5c0.1,2,0.2,4.1,0.2,6.5c0,1.6-0.2,3.5-0.5,5.5c-0.3,2.1-0.9,4.1-1.7,5.9
	c-0.8,1.9-1.9,3.5-3.3,4.8c-1.4,1.4-3.2,2.1-5.3,2.1h-0.3c-2.1,0-3.8-0.6-5.3-1.8c-1.5-1.2-2.7-2.6-3.7-4.4c-1-1.8-1.7-3.7-2-5.8
	c-0.4-2.1-0.5-4-0.4-5.8c0.2-2.8,0.8-5.3,2-7.5c1.2-2.3,2.7-4.3,4.4-6.2c1.8-1.9,3.7-3.6,5.8-5.3c2.1-1.6,4.2-3.2,6.2-4.8l-0.2-4.8
	c-0.9,1.7-2.3,3.1-4.2,4.1c-1.9,1-3.8,1.5-5.8,1.5c-3.5,0-6.4-1.1-8.8-3.3c-2.3-2.2-3.8-5.1-4.3-8.7c-0.3-2.6-0.2-5.1,0.5-7.8
	c0.7-2.6,1.8-4.9,3.4-6.8c1.1-1.3,2.3-2.3,3.9-3.2c1.5-0.9,3.2-1.3,5-1.3c3.5,0,6.4,1.2,8.6,3.6c0.3,0.3,0.6,0.7,0.9,1
	s0.5,0.7,0.8,1.1v-4.2c0-0.4,0.2-0.8,0.5-1.1c0.3-0.3,0.7-0.5,1.2-0.5c0.4,0,0.8,0.2,1.2,0.5c0.3,0.3,0.5,0.7,0.5,1.2
	c-0.1,4.3-0.2,8.7-0.2,13c0,4.3,0.1,8.8,0.3,13.3c0.9-0.8,1.9-1.6,2.8-2.4c0.9-0.8,1.8-1.7,2.6-2.5c1.6-1.8,2.8-3.5,3.7-5
	c0.9-1.6,1.4-3.3,1.7-5.3c0.1-0.4,0.3-0.8,0.7-1.1C527.7,57,528.1,56.9,528.6,57.1z M508.9,70.6c1.1-1.5,1.9-3.2,2.4-5.1
	c0.5-1.9,0.6-4,0.3-6.1c-0.2-1.4-0.5-2.7-1-3.9c-0.5-1.2-1.1-2.3-2-3.2c-0.8-0.9-1.8-1.7-3-2.2c-1.2-0.6-2.6-0.8-4.1-0.8
	c-1.1,0-2.1,0.3-3,0.8c-0.9,0.5-1.7,1.2-2.4,2.1c-0.7,0.9-1.3,1.8-1.8,2.8c-0.5,1-0.9,2-1.2,3c-0.3,1.1-0.5,2.3-0.6,3.5
	c-0.1,1.2,0,2.4,0.2,3.7c0.2,1.2,0.6,2.4,1.1,3.5c0.5,1.1,1.3,2,2.2,2.9c1.1,0.9,2.3,1.5,3.5,1.8s2.6,0.4,4,0.4c1.1,0,2-0.3,2.9-0.8
	C507.4,72.2,508.2,71.4,508.9,70.6z M505.8,114.4c1.6-0.1,2.8-0.6,3.8-1.8c1-1.1,1.8-2.4,2.3-4c0.6-1.6,1-3.2,1.2-4.9
	c0.2-1.7,0.3-3.2,0.3-4.4c-0.1-3.2-0.2-6.3-0.3-9.4c-0.1-3.1-0.3-6.3-0.4-9.7c-1.9,1.4-3.7,2.9-5.5,4.3s-3.3,2.9-4.7,4.5
	c-1.4,1.6-2.5,3.3-3.5,5.1c-0.9,1.8-1.5,3.9-1.6,6.1c-0.1,1.1,0,2.4,0.3,4c0.3,1.6,0.8,3.2,1.4,4.8c0.7,1.5,1.6,2.8,2.7,3.9
	C502.9,113.9,504.3,114.4,505.8,114.4z"/>
</svg>
